<svg width="595" height="109" viewBox="0 0 595 109" fill="none" xmlns="http://www.w3.org/2000/svg">
<path fill-rule="evenodd" clip-rule="evenodd" d="M118.084 11.7064C118.084 5.33021 115.228 2.8556 111.23 2.8556V1.14233H139.879V2.8556C135.883 2.8556 133.027 5.33021 133.027 11.7064V53.3954C133.027 62.1505 136.167 64.0543 142.544 64.0543H145.971C156.916 64.0543 161.77 59.3914 164.245 45.9707H165.862L164.245 65.6728C164.149 66.9101 163.484 67.7662 162.246 67.7662H111.23V66.053C115.228 66.053 118.084 63.5793 118.084 57.2013V11.7064Z" fill="white"/>
<path fill-rule="evenodd" clip-rule="evenodd" d="M186.038 34.2643C187.084 50.5399 195.175 65.1969 206.787 65.1969C218.494 65.1969 223.728 50.5399 222.396 34.2643C221.159 17.9879 213.449 3.33079 201.743 3.33079C190.606 3.33079 184.992 17.1317 186.038 34.2643ZM238.766 34.2643C238.766 53.8706 224.49 68.6235 204.217 68.6235C183.849 68.6235 169.571 53.8706 169.571 34.2643C169.571 14.5623 183.849 0 204.217 0C224.49 0 238.766 14.5623 238.766 34.2643Z" fill="white"/>
<path fill-rule="evenodd" clip-rule="evenodd" d="M267.222 0.19043C282.07 0.19043 289.684 7.42369 289.684 14.3716C289.684 18.8448 285.497 21.3194 281.498 21.3194C280.166 21.3194 278.833 21.034 277.787 20.4624C277.977 19.8916 278.072 18.8448 278.072 17.6084C278.072 12.2781 275.979 3.80661 267.888 3.80661C263.415 3.80661 259.988 6.47178 259.988 11.0399C259.988 17.7981 266.366 22.0817 273.505 26.5541C282.45 32.075 292.54 37.7846 292.54 48.6359C292.54 63.1024 279.405 68.7182 265.7 68.7182C251.708 68.7182 242.762 61.1995 242.762 51.3959C242.762 46.6363 245.902 42.5442 250.375 42.5442C251.518 42.5442 252.85 42.8305 254.183 43.4961C253.231 45.3999 252.946 47.3977 252.946 49.4921C252.946 57.1065 256.087 64.9105 265.795 64.9105C272.457 64.9105 276.93 60.4372 276.93 53.8705C276.93 46.1613 269.506 42.1631 261.988 37.595C254.373 32.7406 246.569 27.3154 246.569 16.2754C246.569 6.47178 255.896 0.19043 267.222 0.19043Z" fill="white"/>
<path fill-rule="evenodd" clip-rule="evenodd" d="M340.41 41.3066C346.502 37.5956 356.78 29.8864 356.78 17.2271C356.78 9.7084 352.688 4.75827 347.263 4.75827H343.836C341.552 4.75827 340.41 6.28188 340.41 9.61266V41.3066ZM325.466 11.7061C325.466 5.32996 322.611 2.85535 318.614 2.85535V1.14209H355.067C365.822 1.14209 372.866 5.1394 372.866 14.943C372.866 30.7426 352.211 40.641 340.41 45.2091V57.2019C340.41 63.579 343.266 66.0536 347.263 66.0536V67.7669H318.614V66.0536C322.611 66.0536 325.466 63.579 325.466 57.2019V11.7061Z" fill="white"/>
<path fill-rule="evenodd" clip-rule="evenodd" d="M375.241 1.14233H403.89V2.8556C399.892 2.8556 397.037 5.33021 397.037 11.7064V57.2013C397.037 63.5793 399.892 66.053 403.89 66.053V67.7662H375.241V66.053C379.239 66.053 382.094 63.5793 382.094 57.2013V11.7064C382.094 5.33021 379.239 2.8556 375.241 2.8556V1.14233Z" fill="white"/>
<path fill-rule="evenodd" clip-rule="evenodd" d="M413.788 8.18467C412.836 5.42558 410.361 2.85523 406.554 2.85523V1.14197H426.637C428.541 1.14197 429.302 1.99905 429.777 2.66466L458.236 46.8274H458.426L458.141 10.2791C458.045 4.66423 456.237 2.85523 451.382 2.85523V1.14197H469.276V2.85523C464.328 2.85523 462.519 4.66423 462.424 10.2791L462.043 68.1479H456.808C456.808 68.1479 451.288 65.1016 445.863 56.2499L417.976 12.1829H417.785L417.88 57.2018C417.88 63.5789 419.689 66.2441 424.637 66.2441V67.7668H406.649V66.2441C411.694 66.2441 413.407 63.5789 413.502 57.2018L413.788 8.18467Z" fill="white"/>
<path fill-rule="evenodd" clip-rule="evenodd" d="M488.498 34.2643C489.544 50.5399 497.635 65.1969 509.247 65.1969C520.954 65.1969 526.188 50.5399 524.856 34.2643C523.619 17.9879 515.909 3.33079 504.203 3.33079C493.066 3.33079 487.452 17.1317 488.498 34.2643ZM541.226 34.2643C541.226 53.8706 526.95 68.6235 506.677 68.6235C486.309 68.6235 472.031 53.8706 472.031 34.2643C472.031 14.5623 486.309 0 506.677 0C526.95 0 541.226 14.5623 541.226 34.2643Z" fill="white"/>
<path fill-rule="evenodd" clip-rule="evenodd" d="M569.681 0.19043C584.529 0.19043 592.144 7.42369 592.144 14.3716C592.144 18.8448 587.956 21.3194 583.957 21.3194C582.625 21.3194 581.292 21.034 580.246 20.4624C580.436 19.8916 580.531 18.8448 580.531 17.6084C580.531 12.2781 578.438 3.80661 570.347 3.80661C565.874 3.80661 562.447 6.47178 562.447 11.0399C562.447 17.7981 568.825 22.0817 575.964 26.5541C584.909 32.075 594.999 37.7846 594.999 48.6359C594.999 63.1024 581.864 68.7182 568.159 68.7182C554.167 68.7182 545.221 61.1995 545.221 51.3959C545.221 46.6363 548.361 42.5442 552.834 42.5442C553.977 42.5442 555.309 42.8305 556.642 43.4961C555.69 45.3999 555.405 47.3977 555.405 49.4921C555.405 57.1065 558.546 64.9105 568.254 64.9105C574.916 64.9105 579.389 60.4372 579.389 53.8705C579.389 46.1613 571.965 42.1631 564.447 37.595C556.832 32.7406 549.028 27.3154 549.028 16.2754C549.028 6.47178 558.355 0.19043 569.681 0.19043Z" fill="white"/>
<path fill-rule="evenodd" clip-rule="evenodd" d="M16.6503 91.5991V82.0882C28.2684 82.0882 37.9881 73.8137 40.2293 62.8484C34.1613 68.8435 25.8339 72.5554 16.6503 72.5554V63.0445C28.2675 63.0445 37.9881 54.77 40.2293 43.8047C34.1613 49.7998 25.8339 53.5117 16.6503 53.5117V44.0007C28.2675 44.0007 37.9881 35.7262 40.2293 24.7619C34.1613 30.756 25.8339 34.4688 16.6503 34.4688V24.957C29.8357 24.957 40.5666 14.2963 40.7034 1.14276C17.8639 3.53349 0 22.9 0 46.3632V99.095C0 104.199 4.13772 108.337 9.24195 108.337H31.4742C36.5785 108.337 40.7162 104.199 40.7162 99.095V81.3852C34.6108 87.673 26.0855 91.5991 16.6503 91.5991Z" fill="white"/>
<path fill-rule="evenodd" clip-rule="evenodd" d="M50.2403 1.14276C50.3771 14.2963 61.1089 24.957 74.2934 24.957V34.4688C65.1035 34.4688 56.7806 30.7378 50.7108 24.7345C52.942 35.7125 62.6672 44.0007 74.2934 44.0007V53.5117C65.1099 53.5117 56.7824 49.7998 50.7153 43.8056C52.9565 54.77 62.6772 63.0445 74.2934 63.0445V72.5554C65.1099 72.5554 56.7824 68.8435 50.7153 62.8484C52.9565 73.8137 62.6772 82.0882 74.2934 82.0882V91.5991C64.8582 91.5991 56.3338 87.673 50.2275 81.3852V99.095C50.2275 104.199 54.3653 108.337 59.4695 108.337H81.7018C86.806 108.337 90.9437 104.199 90.9437 99.095V46.3632C90.9437 22.9009 73.0808 3.5344 50.2403 1.14276Z" fill="white"/>
<path fill-rule="evenodd" clip-rule="evenodd" d="M116.105 105.805H118.804C120.356 105.805 122.578 105.494 122.578 103.273C122.578 101.505 121.36 100.885 118.924 100.885H116.105V105.805ZM116.105 98.3034H118.781C120.787 98.3034 121.862 97.4673 121.862 96.0112C121.862 94.5058 120.787 93.9086 118.517 93.9086H116.105V98.3034ZM113.095 91.4249H119.688C122.244 91.4249 124.871 92.5947 124.871 95.6766C124.871 97.5868 123.677 98.8533 121.934 99.3784V99.4268C124.06 99.7131 125.588 101.147 125.588 103.416C125.588 107.095 122.388 108.337 119.186 108.337H113.095V91.4249Z" fill="white"/>
<path fill-rule="evenodd" clip-rule="evenodd" d="M140.066 101.887L137.463 95.0074L134.811 101.887H140.066ZM136.244 91.4241H138.848L146.133 108.337H142.694L141.117 104.467H133.783L132.255 108.337H128.886L136.244 91.4241Z" fill="white"/>
<path fill-rule="evenodd" clip-rule="evenodd" d="M155.667 98.7099C157.363 98.7099 159.298 98.3042 159.298 96.2499C159.298 94.4099 157.482 93.9558 155.93 93.9558H153.207V98.7099H155.667ZM150.197 91.4247H156.073C159.25 91.4247 162.308 92.6903 162.308 96.2736C162.308 98.7099 160.803 100.311 158.438 100.836L162.953 108.338H159.323L155.405 101.171H153.207V108.338H150.197V91.4247Z" fill="white"/>
<path fill-rule="evenodd" clip-rule="evenodd" d="M173.083 98.7099C174.779 98.7099 176.714 98.3042 176.714 96.2499C176.714 94.4099 174.899 93.9558 173.346 93.9558H170.623V98.7099H173.083ZM167.613 91.4247H173.489C176.666 91.4247 179.724 92.6903 179.724 96.2736C179.724 98.7099 178.219 100.311 175.854 100.836L180.369 108.338H176.739L172.821 101.171H170.623V108.338H167.613V91.4247Z" fill="white"/>
<path fill-rule="evenodd" clip-rule="evenodd" d="M185.03 108.337H188.04V91.4242H185.03V108.337Z" fill="white"/>
<path fill-rule="evenodd" clip-rule="evenodd" d="M202.422 106.068C205.885 106.068 208.251 103.44 208.251 99.8327C208.251 96.3451 205.934 93.6462 202.422 93.6462C198.934 93.6462 196.617 96.3451 196.617 99.8327C196.617 103.44 198.982 106.068 202.422 106.068ZM202.398 90.9947C207.677 90.9947 211.523 94.4103 211.523 99.8327C211.523 105.112 207.677 108.767 202.398 108.767C197.191 108.767 193.343 105.112 193.343 99.8327C193.343 94.4103 197.191 90.9947 202.398 90.9947Z" fill="white"/>
<path fill-rule="evenodd" clip-rule="evenodd" d="M225.454 94.9595C224.808 94.1234 223.542 93.5025 222.348 93.5025C220.962 93.5025 219.361 94.1717 219.361 95.8194C219.361 97.3721 220.676 97.8271 222.586 98.4234C224.761 99.0927 227.532 100.048 227.532 103.369C227.532 107 224.689 108.768 221.369 108.768C219.171 108.768 216.901 107.932 215.563 106.354L217.713 104.348C218.55 105.494 220.078 106.211 221.416 106.211C222.825 106.211 224.474 105.518 224.474 103.703C224.474 101.935 222.706 101.434 220.58 100.764C218.525 100.119 216.304 99.1164 216.304 95.9634C216.304 92.5232 219.433 90.9941 222.491 90.9941C224.187 90.9941 226.122 91.5914 227.411 92.8104L225.454 94.9595Z" fill="white"/>
<path fill-rule="evenodd" clip-rule="evenodd" d="M249.99 101.887L247.387 95.0074L244.734 101.887H249.99ZM246.168 91.4241H248.772L256.057 108.337H252.618L251.04 104.467H243.707L242.179 108.337H238.81L246.168 91.4241Z" fill="white"/>
<path fill-rule="evenodd" clip-rule="evenodd" d="M263.129 105.805H265.829C267.381 105.805 269.603 105.494 269.603 103.273C269.603 101.505 268.385 100.885 265.948 100.885H263.129V105.805ZM263.129 98.3034H265.805C267.811 98.3034 268.886 97.4673 268.886 96.0112C268.886 94.5058 267.811 93.9086 265.542 93.9086H263.129V98.3034ZM260.119 91.4249H266.712C269.268 91.4249 271.896 92.5947 271.896 95.6766C271.896 97.5868 270.701 98.8533 268.958 99.3784V99.4268C271.084 99.7131 272.613 101.147 272.613 103.416C272.613 107.095 269.412 108.337 266.211 108.337H260.119V91.4249Z" fill="white"/>
<path fill-rule="evenodd" clip-rule="evenodd" d="M277.967 108.337H280.977V91.4242H277.967V108.337Z" fill="white"/>
<path fill-rule="evenodd" clip-rule="evenodd" d="M287.093 91.4244H298.296V94.0522H290.103V98.3523H297.866V100.884H290.103V105.661H298.726V108.337H287.093V91.4244Z" fill="white"/>
<path fill-rule="evenodd" clip-rule="evenodd" d="M309.525 98.7099C311.22 98.7099 313.155 98.3042 313.155 96.2499C313.155 94.4099 311.34 93.9558 309.787 93.9558H307.065V98.7099H309.525ZM304.055 91.4247H309.93C313.108 91.4247 316.166 92.6903 316.166 96.2736C316.166 98.7099 314.662 100.311 312.295 100.836L316.812 108.338H313.18L309.262 101.171H307.065V108.338H304.055V91.4247Z" fill="white"/>
<path fill-rule="evenodd" clip-rule="evenodd" d="M324.602 94.0521H319.418V91.4243H332.796V94.0521H327.612V108.337H324.602V94.0521Z" fill="white"/>
<path fill-rule="evenodd" clip-rule="evenodd" d="M344.693 106.068C348.157 106.068 350.522 103.44 350.522 99.8327C350.522 96.3451 348.205 93.6462 344.693 93.6462C341.205 93.6462 338.889 96.3451 338.889 99.8327C338.889 103.44 341.254 106.068 344.693 106.068ZM344.669 90.9947C349.949 90.9947 353.795 94.4103 353.795 99.8327C353.795 105.112 349.949 108.767 344.669 108.767C339.462 108.767 335.615 105.112 335.615 99.8327C335.615 94.4103 339.462 90.9947 344.669 90.9947Z" fill="white"/>
<path fill-rule="evenodd" clip-rule="evenodd" d="M367.725 94.9595C367.08 94.1234 365.813 93.5025 364.62 93.5025C363.234 93.5025 361.633 94.1717 361.633 95.8194C361.633 97.3721 362.947 97.8271 364.858 98.4234C367.032 99.0927 369.803 100.048 369.803 103.369C369.803 107 366.96 108.768 363.64 108.768C361.442 108.768 359.173 107.932 357.835 106.354L359.985 104.348C360.821 105.494 362.349 106.211 363.688 106.211C365.096 106.211 366.746 105.518 366.746 103.703C366.746 101.935 364.977 101.434 362.852 100.764C360.796 100.119 358.575 99.1164 358.575 95.9634C358.575 92.5232 361.705 90.9941 364.763 90.9941C366.459 90.9941 368.394 91.5914 369.683 92.8104L367.725 94.9595Z" fill="white"/>
<path fill-rule="evenodd" clip-rule="evenodd" d="M389.034 98.7099C390.73 98.7099 392.665 98.3042 392.665 96.2499C392.665 94.4099 390.85 93.9558 389.297 93.9558H386.574V98.7099H389.034ZM383.564 91.4247H389.44C392.618 91.4247 395.675 92.6903 395.675 96.2736C395.675 98.7099 394.17 100.311 391.805 100.836L396.32 108.338H392.69L388.772 101.171H386.574V108.338H383.564V91.4247Z" fill="white"/>
<path fill-rule="evenodd" clip-rule="evenodd" d="M400.981 91.4244H412.185V94.0522H403.991V98.3523H411.754V100.884H403.991V105.661H412.615V108.337H400.981V91.4244Z" fill="white"/>
<path fill-rule="evenodd" clip-rule="evenodd" d="M426.568 94.9595C425.922 94.1234 424.656 93.5025 423.462 93.5025C422.076 93.5025 420.475 94.1717 420.475 95.8194C420.475 97.3721 421.79 97.8271 423.7 98.4234C425.875 99.0927 428.646 100.048 428.646 103.369C428.646 107 425.803 108.768 422.483 108.768C420.285 108.768 418.015 107.932 416.678 106.354L418.828 104.348C419.664 105.494 421.192 106.211 422.531 106.211C423.939 106.211 425.589 105.518 425.589 103.703C425.589 101.935 423.82 101.434 421.694 100.764C419.639 100.119 417.418 99.1164 417.418 95.9634C417.418 92.5232 420.547 90.9941 423.606 90.9941C425.301 90.9941 427.236 91.5914 428.526 92.8104L426.568 94.9595Z" fill="white"/>
<path fill-rule="evenodd" clip-rule="evenodd" d="M434.046 108.337H437.057V91.4242H434.046V108.337Z" fill="white"/>
<path fill-rule="evenodd" clip-rule="evenodd" d="M448.691 105.71C451.797 105.71 455.283 104.443 455.283 99.8804C455.283 95.0315 451.797 94.0039 448.691 94.0039H446.183V105.71H448.691ZM443.173 91.4244H449.168C453.588 91.4244 458.509 93.527 458.509 99.8804C458.509 105.804 453.588 108.337 449.168 108.337H443.173V91.4244Z" fill="white"/>
<path fill-rule="evenodd" clip-rule="evenodd" d="M463.814 91.4244H475.018V94.0522H466.824V98.3523H474.587V100.884H466.824V105.661H475.448V108.337H463.814V91.4244Z" fill="white"/>
<path fill-rule="evenodd" clip-rule="evenodd" d="M480.777 91.4244H484.766L492.625 104.086H492.674V91.4244H495.683V108.337H491.861L483.836 95.2704H483.787V108.337H480.777V91.4244Z" fill="white"/>
<path fill-rule="evenodd" clip-rule="evenodd" d="M514.008 95.3895C513.123 94.1714 511.523 93.6462 510.161 93.6462C506.674 93.6462 504.309 96.3451 504.309 99.8327C504.309 103.512 506.554 106.068 510.042 106.068C511.858 106.068 513.291 105.28 514.151 104.109L516.564 105.805C515.083 107.669 512.885 108.767 510.018 108.767C504.739 108.767 500.988 105.112 500.988 99.8327C500.988 94.4103 504.954 90.9947 510.161 90.9947C512.359 90.9947 514.963 91.8062 516.301 93.5742L514.008 95.3895Z" fill="white"/>
<path fill-rule="evenodd" clip-rule="evenodd" d="M520.818 108.337H523.828V91.4242H520.818V108.337Z" fill="white"/>
<path fill-rule="evenodd" clip-rule="evenodd" d="M539.07 101.887L536.467 95.0074L533.815 101.887H539.07ZM535.248 91.4241H537.852L545.137 108.337H541.698L540.12 104.467H532.787L531.259 108.337H527.89L535.248 91.4241Z" fill="white"/>
<path fill-rule="evenodd" clip-rule="evenodd" d="M549.2 91.4244H552.21V105.661H559.401V108.337H549.2V91.4244Z" fill="white"/>
<path fill-rule="evenodd" clip-rule="evenodd" d="M563.799 91.4244H575.002V94.0522H566.809V98.3523H574.572V100.884H566.809V105.661H575.432V108.337H563.799V91.4244Z" fill="white"/>
<path fill-rule="evenodd" clip-rule="evenodd" d="M589.384 94.9595C588.739 94.1234 587.472 93.5025 586.279 93.5025C584.893 93.5025 583.292 94.1717 583.292 95.8194C583.292 97.3721 584.607 97.8271 586.517 98.4234C588.691 99.0927 591.462 100.048 591.462 103.369C591.462 107 588.619 108.768 585.3 108.768C583.101 108.768 580.832 107.932 579.494 106.354L581.644 104.348C582.48 105.494 584.008 106.211 585.347 106.211C586.756 106.211 588.405 105.518 588.405 103.703C588.405 101.935 586.636 101.434 584.511 100.764C582.456 100.119 580.235 99.1164 580.235 95.9634C580.235 92.5232 583.364 90.9941 586.422 90.9941C588.118 90.9941 590.053 91.5914 591.342 92.8104L589.384 94.9595Z" fill="white"/>
</svg>
